<svg xmlns="http://www.w3.org/2000/svg" viewBox="0 0 103 32" fill="none" class="dark:text-[#00E0FF] !rotate-y-0 w-80px h-24px !md:w-103px !md:h-32px"><g fill="currentColor" clip-path="url(#a)"><path d="M40.4 16c.7-.4 1.4-1 1.8-1.6A4.3 4.3 0 0 0 43 12c0-1.7-.6-3-2-4-1.2-.9-2.9-1.3-5-1.3h-7.8v20h8c2.3 0 4.1-.6 5.5-1.7 1.3-1 2-2.5 2-4.3 0-1.1-.4-2.1-1-2.9a5.4 5.4 0 0 0-2.3-1.6Zm-8-5.8h3.2c1 0 1.8.2 2.3.5.5.4.7 1 .7 1.6 0 .6-.2 1.1-.7 1.5-.5.4-1.3.6-2.3.6h-3.2v-4.2Zm6 12c-.5.5-1.3.7-2.5.7h-3.5V18h3.5c1.2 0 2 .3 2.6.7.5.4.8 1 .8 1.7 0 .8-.3 1.4-.8 1.8Zm11-10.6H45v15h4.2v-15Zm41.8 2.2a6.8 6.8 0 0 0-2.5-1.8 8 8 0 0 0-3.3-.7c-1.5 0-2.8.4-4 1a7.2 7.2 0 0 0-2.7 2.7 8 8 0 0 0-1 4c0 1.5.4 2.9 1 4a6.7 6.7 0 0 0 2.7 2.8c1.1.6 2.5 1 4 1 1.9 0 3.5-.5 4.7-1.4 1.3-1 2.1-2.2 2.6-3.8h-4.3a3 3 0 0 1-1 1.3c-.5.4-1.2.6-2 .6s-1.4-.2-1.9-.5-.9-.9-1.1-1.5A5.8 5.8 0 0 1 82 20h10.6a8 8 0 0 0-.1-3.5 7.3 7.3 0 0 0-1.4-2.8Zm-9 3.6a6.1 6.1 0 0 1 .2-1c.3-.6.6-1.1 1.1-1.5a3 3 0 0 1 1.8-.5c.9 0 1.6.3 2.1.9.5.5.8 1.2.9 2H82ZM49.3 6.6H45v3.6h4.4V6.6Zm23.2 6.7a5.3 5.3 0 0 0-1.7-1.4c-.8-.4-1.8-.6-2.8-.6a6.3 6.3 0 0 0-5.7 3.5c-.5 1.1-.8 2.4-.8 3.8s.3 2.7.9 3.8c.6 1.1 1.4 2 2.4 2.6a6.2 6.2 0 0 0 6 .4 4.6 4.6 0 0 0 1.4-1.3v1.6c0 1-.3 1.8-.8 2.3-.5.5-1.3.8-2.3.8-1 0-1.7-.2-2.1-.6-.5-.3-.8-.8-.9-1.7h-4a5 5 0 0 0 .9 3c.6.8 1.4 1.4 2.5 1.9 1 .4 2.2.7 3.6.7a8 8 0 0 0 5.3-1.7 6 6 0 0 0 2-4.7V11.6h-3.9v1.7Zm-.7 7.3a3 3 0 0 1-1.2 1.3c-.4.3-1 .5-1.7.5-1 0-1.7-.4-2.3-1a4 4 0 0 1-.8-2.8c0-1.1.3-2 .8-2.7.6-.6 1.4-1 2.3-1 1 0 1.8.4 2.4 1 .6.7.9 1.6.9 2.8 0 .7-.2 1.4-.4 2Zm31.1-5.4v-3.6h-3v-5h-4.3v5h-2.6v3.6h2.6V21c0 3.3.7 5.6 4.7 5.6h2.5v-3.4h-1.3c-1.7 0-1.6-1-1.6-3v-5h3Zm-42.4 0v-3.6h-3v-5h-4.3v5h-2.6v3.6h2.6V21c0 3.3.7 5.6 4.7 5.6h2.5v-3.4h-1.3c-1.7 0-1.6-1-1.6-3v-5h3Zm-50-5h6.3l6.5 6.4a1 1 0 0 1 0 1.5l-8.3 8.4H8.5l2-2 7.3-7.1-7.2-7.2"/><path d="M13.2 17.4H6.8L.3 10.9a1 1 0 0 1 0-1.5L8.7 1h6.5l-2 2L6 10l7.1 7.3"/></g><defs><clipPath id="a"><path fill="#fff" d="M0 0h103v32H0z"/></clipPath></defs></svg>